<svg width="30" height="30" viewBox="0 0 30 30" fill="none" xmlns="http://www.w3.org/2000/svg">
<path d="M25.605 4.395L23.49 6.51C25.65 8.685 27 11.685 27 15C27 21.63 21.63 27 15 27C8.37 27 3 21.63 3 15C3 8.88 7.575 3.84 13.5 3.105V6.135C9.24 6.855 6 10.545 6 15C6 19.965 10.035 24 15 24C19.965 24 24 19.965 24 15C24 12.51 22.995 10.26 21.36 8.64L19.245 10.755C20.325 11.85 21 13.35 21 15C21 18.315 18.315 21 15 21C11.685 21 9 18.315 9 15C9 12.21 10.92 9.885 13.5 9.21V12.42C12.6 12.945 12 13.89 12 15C12 16.65 13.35 18 15 18C16.65 18 18 16.65 18 15C18 13.89 17.4 12.93 16.5 12.42V0H15C6.72 0 0 6.72 0 15C0 23.28 6.72 30 15 30C23.28 30 30 23.28 30 15C30 10.86 28.32 7.11 25.605 4.395Z" fill="#E2E2E2"/>
</svg>
