<svg width="28" height="28" viewBox="0 0 28 28" fill="none" xmlns="http://www.w3.org/2000/svg">
<path fill-rule="evenodd" clip-rule="evenodd" d="M14 0C6.272 0 0 6.272 0 14C0 21.728 6.272 28 14 28C21.728 28 28 21.728 28 14C28 6.272 21.728 0 14 0ZM20.86 18.886L18.9 20.846C18.62 21.126 18.186 21.126 17.906 20.846L13.132 16.072C11.424 16.674 9.436 16.31 8.064 14.938C6.51 13.384 6.244 11.032 7.238 9.198L10.528 12.488L12.502 10.514L9.212 7.238C11.06 6.244 13.398 6.51 14.952 8.064C16.324 9.436 16.688 11.424 16.086 13.132L20.86 17.906C21.126 18.172 21.126 18.62 20.86 18.886Z" fill="#FF3D00"/>
</svg>
